<svg xmlns="http://www.w3.org/2000/svg" viewBox="0 0 24 24" fill="none">
	<rect width="24" height="24" rx="5" fill="#0f1620"/>
	<path d="M12 4c-4.4 0-8 3.6-8 8 0 3.5 2.3 6.5 5.5 7.5.4.1.5-.2.5-.4v-1.5c-2.2.5-2.7-1-2.7-1-.4-.9-1-1.1-1-1.1-.8-.5.1-.5.1-.5.8.1 1.2.8 1.2.8.7 1.2 1.9.9 2.4.7.1-.5.3-.9.5-1.1-1.8-.2-3.6-.9-3.6-4 0-.9.3-1.6.8-2.2-.1-.2-.3-1 .1-2.1 0 0 .7-.2 2.3.8.7-.2 1.4-.3 2.1-.3.7 0 1.4.1 2.1.3 1.6-1 2.3-.8 2.3-.8.4 1.1.2 1.9.1 2.1.5.6.8 1.3.8 2.2 0 3.1-1.8 3.8-3.6 4 .3.3.5.7.5 1.4v2.1c0 .2.1.5.5.4 3.2-1 5.5-4 5.5-7.5 0-4.4-3.6-8-8-8z" fill="#cfe3ff"/>
</svg> 